<?xml version="1.0" standalone="no"?>
<svg xmlns:xlink="http://www.w3.org/1999/xlink" id="wave" style="transform:rotate(0deg); transition: 0.3s" viewBox="0 0 1440 210" version="1.1" xmlns="http://www.w3.org/2000/svg"><defs><linearGradient id="sw-gradient-0" x1="0" x2="0" y1="1" y2="0"><stop stop-color="rgba(240.272, 43.032, 113.072, 1)" offset="0%"/><stop stop-color="rgba(245, 0, 87, 1)" offset="100%"/></linearGradient></defs><path style="transform:translate(0, 0px); opacity:1" fill="url(#sw-gradient-0)" d="M0,147L21.8,140C43.6,133,87,119,131,115.5C174.5,112,218,119,262,115.5C305.5,112,349,98,393,105C436.4,112,480,140,524,143.5C567.3,147,611,126,655,129.5C698.2,133,742,161,785,147C829.1,133,873,77,916,70C960,63,1004,105,1047,133C1090.9,161,1135,175,1178,164.5C1221.8,154,1265,119,1309,91C1352.7,63,1396,42,1440,52.5C1483.6,63,1527,105,1571,108.5C1614.5,112,1658,77,1702,70C1745.5,63,1789,84,1833,98C1876.4,112,1920,119,1964,133C2007.3,147,2051,168,2095,157.5C2138.2,147,2182,105,2225,87.5C2269.1,70,2313,77,2356,84C2400,91,2444,98,2487,112C2530.9,126,2575,147,2618,157.5C2661.8,168,2705,168,2749,168C2792.7,168,2836,168,2880,147C2923.6,126,2967,84,3011,84C3054.5,84,3098,126,3120,147L3141.8,168L3141.8,210L3120,210C3098.2,210,3055,210,3011,210C2967.3,210,2924,210,2880,210C2836.4,210,2793,210,2749,210C2705.5,210,2662,210,2618,210C2574.5,210,2531,210,2487,210C2443.6,210,2400,210,2356,210C2312.7,210,2269,210,2225,210C2181.8,210,2138,210,2095,210C2050.9,210,2007,210,1964,210C1920,210,1876,210,1833,210C1789.1,210,1745,210,1702,210C1658.2,210,1615,210,1571,210C1527.3,210,1484,210,1440,210C1396.4,210,1353,210,1309,210C1265.5,210,1222,210,1178,210C1134.5,210,1091,210,1047,210C1003.6,210,960,210,916,210C872.7,210,829,210,785,210C741.8,210,698,210,655,210C610.9,210,567,210,524,210C480,210,436,210,393,210C349.1,210,305,210,262,210C218.2,210,175,210,131,210C87.3,210,44,210,22,210L0,210Z"/><defs><linearGradient id="sw-gradient-1" x1="0" x2="0" y1="1" y2="0"><stop stop-color="rgba(255, 124.86, 157.395, 1)" offset="0%"/><stop stop-color="rgba(255, 0, 90.551, 1)" offset="100%"/></linearGradient></defs><path style="transform:translate(0, 50px); opacity:0.9" fill="url(#sw-gradient-1)" d="M0,42L21.8,35C43.6,28,87,14,131,14C174.5,14,218,28,262,28C305.5,28,349,14,393,35C436.4,56,480,112,524,143.5C567.3,175,611,182,655,171.5C698.2,161,742,133,785,115.5C829.1,98,873,91,916,73.5C960,56,1004,28,1047,31.5C1090.9,35,1135,70,1178,87.5C1221.8,105,1265,105,1309,101.5C1352.7,98,1396,91,1440,80.5C1483.6,70,1527,56,1571,70C1614.5,84,1658,126,1702,150.5C1745.5,175,1789,182,1833,154C1876.4,126,1920,63,1964,52.5C2007.3,42,2051,84,2095,105C2138.2,126,2182,126,2225,126C2269.1,126,2313,126,2356,108.5C2400,91,2444,56,2487,38.5C2530.9,21,2575,21,2618,45.5C2661.8,70,2705,119,2749,122.5C2792.7,126,2836,84,2880,84C2923.6,84,2967,126,3011,133C3054.5,140,3098,112,3120,98L3141.8,84L3141.8,210L3120,210C3098.2,210,3055,210,3011,210C2967.3,210,2924,210,2880,210C2836.4,210,2793,210,2749,210C2705.5,210,2662,210,2618,210C2574.5,210,2531,210,2487,210C2443.6,210,2400,210,2356,210C2312.7,210,2269,210,2225,210C2181.8,210,2138,210,2095,210C2050.9,210,2007,210,1964,210C1920,210,1876,210,1833,210C1789.1,210,1745,210,1702,210C1658.2,210,1615,210,1571,210C1527.3,210,1484,210,1440,210C1396.4,210,1353,210,1309,210C1265.5,210,1222,210,1178,210C1134.5,210,1091,210,1047,210C1003.6,210,960,210,916,210C872.7,210,829,210,785,210C741.8,210,698,210,655,210C610.9,210,567,210,524,210C480,210,436,210,393,210C349.1,210,305,210,262,210C218.2,210,175,210,131,210C87.3,210,44,210,22,210L0,210Z"/></svg>